# xmcd
#
# Track frame offsets:
#	150
#	14413
#	35185
#	48810
#	61295
#	80503
#	96636
#	113243
#	129936
#	140967
#	168177
#
# Disc length: 2488 seconds
#
# Revision: 1
# Processed by: cddbd v1.5.2PL0 Copyright (c) Steve Scherf et al.
# Submitted via: audiograbber 1.83.01
#
DISCID=9909b60b
DTITLE=Rebel Pride - The Southern Rock Tribute To Toby Keith 
DYEAR=2008
DGENRE=Southern Rock
TTITLE0=High Maintenance Woman
TTITLE1=Beer For My Horses
TTITLE2=Get Drunk And Be Somebody
TTITLE3=I'm Just Talkin' About Tonight
TTITLE4=I Love This Bar
TTITLE5=As Good As I Once Was
TTITLE6=A Little Less Talk And A Lot M
TTITLE7=Whiskey Girl
TTITLE8=You Ain't Much Fun
TTITLE9=Who's Your Daddy
TTITLE10=Should've Been A Cowboy
EXTD=
EXTT0=
EXTT1=
EXTT2=
EXTT3=
EXTT4=
EXTT5=
EXTT6=
EXTT7=
EXTT8=
EXTT9=
EXTT10=
PLAYORDER=
